<?xml version="1.0" encoding="utf-8"?>
<!-- Generator: Adobe Illustrator 22.0.1, SVG Export Plug-In . SVG Version: 6.00 Build 0)  -->
<svg version="1.1" id="Camada_1" xmlns="http://www.w3.org/2000/svg" xmlns:xlink="http://www.w3.org/1999/xlink" x="0px" y="0px"
	 viewBox="0 0 64 64" style="enable-background:new 0 0 64 64;" xml:space="preserve">
<style type="text/css">
	.st0{fill:#E5E5E5;}
</style>
<path class="st0" d="M56,64H8c-4.4,0-8-3.6-8-8V8c0-4.4,3.6-8,8-8h48c4.4,0,8,3.6,8,8v48C64,60.4,60.4,64,56,64z"/>
<title>enter</title>
<polygon points="28.3,25.3 14.4,11.3 24.2,11.3 24.2,7 11.3,7 7,7 7,11.3 7,24.2 11.3,24.2 11.3,14.4 25.3,28.3 "/>
<polygon points="52.7,39.8 52.7,49.6 38.7,35.7 35.7,38.7 49.6,52.7 39.8,52.7 39.8,57 52.7,57 57,57 57,52.7 57,39.8 "/>
<polygon points="28.3,38.7 25.3,35.7 11.3,49.6 11.3,39.8 7,39.8 7,52.7 7,57 11.3,57 24.2,57 24.2,52.7 14.4,52.7 "/>
<polygon points="52.7,7 39.8,7 39.8,11.3 49.6,11.3 35.7,25.3 38.7,28.3 52.7,14.4 52.7,24.2 57,24.2 57,11.3 57,7 "/>
</svg>
