<?xml version="1.0" encoding="utf-8"?>
<!-- Generator: Adobe Illustrator 22.1.0, SVG Export Plug-In . SVG Version: 6.00 Build 0)  -->
<svg version="1.1" id="Camada_1" xmlns="http://www.w3.org/2000/svg" xmlns:xlink="http://www.w3.org/1999/xlink" x="0px" y="0px"
	 viewBox="0 0 44 44" style="enable-background:new 0 0 44 44;" xml:space="preserve">
<style type="text/css">
	.st0{fill:#FDFFFF;}
</style>
<title>icones</title>
<path class="st0" d="M40,4H4C1.8,4,0,5.8,0,8v24c0,2.2,1.8,4,4,4h10v4h16v-4h10c2.2,0,4-1.8,4-4V8C44,5.8,42.2,4,40,4z M40,32H4V8
	h36V32z M36,14H14v4h22V14z M36,22H14v4h22V22z M12,14H8v4h4V14z M12,22H8v4h4V22z"/>
</svg>
