<?xml version="1.0" encoding="utf-8"?>
<!-- Generator: Adobe Illustrator 22.0.1, SVG Export Plug-In . SVG Version: 6.00 Build 0)  -->
<svg version="1.1" id="Camada_1" xmlns="http://www.w3.org/2000/svg" xmlns:xlink="http://www.w3.org/1999/xlink" x="0px" y="0px"
	 viewBox="0 0 64 64" style="enable-background:new 0 0 64 64;" xml:space="preserve">
<style type="text/css">
	.st0{fill:#E5E5E5;}
</style>
<path class="st0" d="M56,64H8c-4.4,0-8-3.6-8-8V8c0-4.4,3.6-8,8-8h48c4.4,0,8,3.6,8,8v48C64,60.4,60.4,64,56,64z"/>
<title>exit</title>
<polygon points="7,10.1 21,24 11.1,24 11.1,28.3 24,28.3 28.3,28.3 28.3,24 28.3,11.1 24,11.1 24,21 10.1,7 "/>
<polygon points="40,52.9 40,43 53.9,57 57,53.9 43,40 52.9,40 52.9,35.7 40,35.7 35.7,35.7 35.7,40 35.7,52.9 "/>
<polygon points="7,53.9 10.1,57 24,43 24,52.9 28.3,52.9 28.3,40 28.3,35.7 24,35.7 11.1,35.7 11.1,40 21,40 "/>
<polygon points="40,28.3 52.9,28.3 52.9,24 43,24 57,10.1 53.9,7 40,21 40,11.1 35.7,11.1 35.7,24 35.7,28.3 "/>
</svg>
