<?xml version="1.0" encoding="utf-8"?>
<!-- Generator: Adobe Illustrator 22.1.0, SVG Export Plug-In . SVG Version: 6.00 Build 0)  -->
<svg version="1.1" id="Camada_1" xmlns="http://www.w3.org/2000/svg" xmlns:xlink="http://www.w3.org/1999/xlink" x="0px" y="0px"
	 viewBox="0 0 42 42" style="enable-background:new 0 0 42 42;" xml:space="preserve">
<style type="text/css">
	.st0{fill:#FFFFFF;}
</style>
<title>icones</title>
<g>
	<g id="Rounded">
		<path class="st0" d="M19.7,0c-10.8,0.7-19,10.2-19,21v14.3c0,3.7,3,6.7,6.7,6.7h2.2c2.5,0,4.5-2,4.5-4.5v-3.4c0-2.5-2-4.5-4.5-4.5
			H5.2V21c0-8.7,6.7-16.2,15.3-16.5c8.7-0.3,16,6.6,16.3,15.3c0,0.2,0,0.4,0,0.6v9.2h-4.5c-2.5,0-4.5,2-4.5,4.5v3.5
			c0,2.5,2,4.5,4.5,4.5h2.2c3.7,0,6.7-3,6.7-6.7V20.4C41.3,9.1,32.3,0,21,0C20.6,0,20.1,0,19.7,0z"/>
	</g>
	<g id="Rounded-2">
		<path class="st0" d="M17.1,15.1V27c0,0.6,0.5,1.1,1.1,1.2c0.2,0,0.5-0.1,0.7-0.2l9.3-5.9c0.5-0.3,0.7-1,0.4-1.5
			c-0.1-0.2-0.2-0.3-0.4-0.4l-9.3-5.9c-0.5-0.4-1.2-0.2-1.6,0.3C17.1,14.6,17.1,14.8,17.1,15.1z"/>
	</g>
</g>
</svg>
