<?xml version="1.0" encoding="utf-8"?>
<!-- Generator: Adobe Illustrator 22.1.0, SVG Export Plug-In . SVG Version: 6.00 Build 0)  -->
<svg version="1.1" id="Camada_1" xmlns="http://www.w3.org/2000/svg" xmlns:xlink="http://www.w3.org/1999/xlink" x="0px" y="0px"
	 viewBox="0 0 44 44" style="enable-background:new 0 0 44 44;" xml:space="preserve">
<style type="text/css">
	.st0{fill:#FFFFFF;}
	.st1{fill:#FDFFFF;}
</style>
<title>icones</title>
<g>
	<path class="st0" d="M32.5,6.6l-4.1-4.1H11.6v23h20.8V6.6z M24.1,21.2h-8.4v-4.1h8.4V21.2z M28.2,12.9H15.8V8.7h12.5V12.9z"/>
	<path class="st1" d="M39.3,6.9h-3.8v3.8h3.8v23.1H4.7V10.8h3.8V6.9H4.7c-2.1,0-3.8,1.7-3.8,3.8v23.1c0,2.1,1.7,3.8,3.8,3.8h9.6v3.8
		h15.4v-3.8h9.6c2.1,0,3.8-1.7,3.8-3.8V10.8C43.1,8.6,41.4,6.9,39.3,6.9z"/>
</g>
</svg>
