<svg id="Camada_1" data-name="Camada 1" xmlns="http://www.w3.org/2000/svg" viewBox="0 0 40 60"><defs><style>.cls-1{opacity:0.81;}.cls-2{fill:#fff;}.cls-3{fill:#349a97;}</style></defs><title>seta</title><g id="Rounded" class="cls-1"><path class="cls-2" d="M9.58,57.5A6.53,6.53,0,0,1,3,51V9.11A6.58,6.58,0,0,1,9.62,2.5,6.36,6.36,0,0,1,14.2,4.44L35.13,25.36a6.56,6.56,0,0,1,0,9.26L14.2,55.54a6.39,6.39,0,0,1-4.62,2Z"/><path class="cls-3" d="M9.62,4a4.86,4.86,0,0,1,3.52,1.5L34.06,26.42a5.05,5.05,0,0,1,0,7.14L13.14,54.48A4.92,4.92,0,0,1,9.58,56a5,5,0,0,1-5.13-5V9.11A5.09,5.09,0,0,1,9.62,4m0-3A8.11,8.11,0,0,0,1.45,9.11V51a8,8,0,0,0,8.13,8,8,8,0,0,0,5.68-2.39L36.19,35.68a8,8,0,0,0,0-11.38L15.26,3.37A7.89,7.89,0,0,0,9.62,1Z"/></g></svg>